<?xml version="1.0" encoding="iso-8859-1"?>
<!-- Generator: Adobe Illustrator 18.0.0, SVG Export Plug-In . SVG Version: 6.00 Build 0)  -->
<!DOCTYPE svg PUBLIC "-//W3C//DTD SVG 1.1//EN" "http://www.w3.org/Graphics/SVG/1.1/DTD/svg11.dtd">
<svg version="1.1" id="Capa_1" xmlns="http://www.w3.org/2000/svg" xmlns:xlink="http://www.w3.org/1999/xlink" x="0px" y="0px"
	 viewBox="0 0 365.705 365.705" style="enable-background:new 0 0 365.705 365.705;" xml:space="preserve">
<path d="M285.289,88.493L268.25,76.965c13.585-28.071,10.04-56.854-8.66-70.059c-11.264-7.955-25.995-9.077-41.477-3.161
	c-11.846,4.527-23.111,12.875-32.36,23.845c-0.962-0.07-1.928-0.118-2.9-0.118c-8.011,0-15.752,2.373-22.387,6.862l-80.051,54.16
	c-10.997,7.444-17.562,19.814-17.562,33.089v204.174c0,22.028,17.921,39.949,39.95,39.949h160.1c22.029,0,39.95-17.921,39.95-39.949
	V121.582C302.853,108.307,296.287,95.938,285.289,88.493z M164.541,83.874c0.665,14.053,6.296,26.238,16.889,33.719
	c2.256,1.592,4.944,2.12,7.466,1.686c2.522-0.434,4.878-1.831,6.472-4.086c3.185-4.512,2.11-10.752-2.401-13.938
	c-12.731-8.989-10.872-34.446,4.058-55.59c7.653-10.838,17.941-19.308,28.226-23.238c5.246-2.005,15.185-4.564,22.802,0.816
	c9.883,6.979,11.171,24.48,3.407,42.361l-32.003-21.651c0,0-20.042,16.649-18.386,39.817c4.501,4.601,7.282,10.89,7.282,17.818
	c0,14.061-11.44,25.5-25.5,25.5c-14.061,0-25.5-11.439-25.5-25.5C157.353,94.709,160.096,88.464,164.541,83.874z M256.353,325.589
	h-147c-5.514,0-10-4.486-10-10c0-5.514,4.486-10,10-10h147c5.514,0,10,4.486,10,10C266.353,321.103,261.867,325.589,256.353,325.589
	z M256.353,275.589h-147c-5.514,0-10-4.486-10-10c0-5.514,4.486-10,10-10h147c5.514,0,10,4.486,10,10
	C266.353,271.103,261.867,275.589,256.353,275.589z"/>
<g>
</g>
<g>
</g>
<g>
</g>
<g>
</g>
<g>
</g>
<g>
</g>
<g>
</g>
<g>
</g>
<g>
</g>
<g>
</g>
<g>
</g>
<g>
</g>
<g>
</g>
<g>
</g>
<g>
</g>
</svg>
