<?xml version="1.0" encoding="UTF-8"?>
<!DOCTYPE svg PUBLIC "-//W3C//DTD SVG 1.1//EN" "http://www.w3.org/Graphics/SVG/1.1/DTD/svg11.dtd">
<!-- Creator: CorelDRAW X8 -->
<svg xmlns="http://www.w3.org/2000/svg" xml:space="preserve" width="210mm" height="210mm" version="1.1" style="shape-rendering:geometricPrecision; text-rendering:geometricPrecision; image-rendering:optimizeQuality; fill-rule:evenodd; clip-rule:evenodd"
viewBox="0 0 21000 21000"
 xmlns:xlink="http://www.w3.org/1999/xlink">
 <defs>
  <style type="text/css">
   <![CDATA[
    .str0 {stroke:#2B2A29;stroke-width:20}
    .fil0 {fill:#2B2A29}
   ]]>
  </style>
 </defs>
 <g id="Слой_x0020_1">
  <metadata id="CorelCorpID_0Corel-Layer"/>
  <path class="fil0 str0" d="M5650 0l9700 0c3112,0 5650,2538 5650,5650l0 9700c0,3112 -2538,5650 -5650,5650l-280 0c0,-6 1,-11 1,-16l0 -6216 2284 0c168,0 305,-137 305,-305l1 -2464c0,-81 -32,-158 -89,-216 -58,-57 -135,-89 -217,-89l-2284 0 0 -1441c0,-693 165,-1045 1067,-1045l1309 0c169,0 305,-137 305,-306l0 -2287c0,-169 -136,-305 -305,-306l-1943 -3c-2183,0 -3593,1448 -3593,3688l0 1700 -1954 0c-168,0 -305,137 -305,305l0 2464c0,168 137,305 305,305l1954 0 0 6216c0,5 0,10 0,16l-6261 0c-3112,0 -5650,-2538 -5650,-5650l0 -9700c0,-3112 2538,-5650 5650,-5650z"/>
  <g id="_810594960">
  </g>
  <g id="_810601104">
  </g>
  <g id="_810598512">
  </g>
  <g id="_810598064">
  </g>
  <g id="_810598544">
  </g>
  <g id="_810598448">
  </g>
  <g id="_810599440">
  </g>
  <g id="_810604112">
  </g>
  <g id="_810603024">
  </g>
  <g id="_810599760">
  </g>
  <g id="_810602768">
  </g>
  <g id="_810602192">
  </g>
  <g id="_810595664">
  </g>
  <g id="_810601552">
  </g>
  <g id="_810597552">
  </g>
 </g>
</svg>
