<?xml version="1.0" encoding="UTF-8"?>
<!DOCTYPE svg PUBLIC "-//W3C//DTD SVG 1.1//EN" "http://www.w3.org/Graphics/SVG/1.1/DTD/svg11.dtd">
<!-- Creator: CorelDRAW X8 -->
<svg xmlns="http://www.w3.org/2000/svg" xml:space="preserve" width="500px" height="500px" version="1.1" style="shape-rendering:geometricPrecision; text-rendering:geometricPrecision; image-rendering:optimizeQuality; fill-rule:evenodd; clip-rule:evenodd"
viewBox="0 0 500 500"
 xmlns:xlink="http://www.w3.org/1999/xlink">
 <defs>
  <style type="text/css">
   <![CDATA[
    .fil0 {fill:#2B2A29}
   ]]>
  </style>
 </defs>
 <g id="Слой_x0020_1">
  <metadata id="CorelCorpID_0Corel-Layer"/>
  <path class="fil0" d="M135 500l-135 0 0 -134 0 -1 0 -216 0 0 0 -149 500 0 0 149 0 0 0 216 0 0 0 135 -134 0c0,0 0,0 -1,0l-6 0c0,0 0,0 0,0l0 -148 54 0c4,0 7,-4 7,-8l1 -58c0,-2 -1,-4 -3,-5 -1,-2 -3,-3 -5,-3l-54 0 0 -34c0,-16 4,-25 25,-25l31 0c4,0 8,-3 8,-7l0 -54c0,-5 -4,-8 -8,-8l-46 0c-52,0 -85,35 -85,88l0 40 -47 0c-4,0 -7,4 -7,8l0 58c0,4 3,8 7,8l47 0 0 148c0,0 0,0 0,0l-149 0 0 0z"/>
 </g>
 <g id="Слой_x0020_1_0">
  <metadata id="CorelCorpID_1Corel-Layer"/>
  <g id="_810594960">
  </g>
  <g id="_810601104">
  </g>
  <g id="_810598512">
  </g>
  <g id="_810598064">
  </g>
  <g id="_810598544">
  </g>
  <g id="_810598448">
  </g>
  <g id="_810599440">
  </g>
  <g id="_810604112">
  </g>
  <g id="_810603024">
  </g>
  <g id="_810599760">
  </g>
  <g id="_810602768">
  </g>
  <g id="_810602192">
  </g>
  <g id="_810595664">
  </g>
  <g id="_810601552">
  </g>
  <g id="_810597552">
  </g>
 </g>
</svg>
