<?xml version="1.0" encoding="UTF-8"?>
<!DOCTYPE svg PUBLIC "-//W3C//DTD SVG 1.1//EN" "http://www.w3.org/Graphics/SVG/1.1/DTD/svg11.dtd">
<!-- Creator: CorelDRAW X8 -->
<svg xmlns="http://www.w3.org/2000/svg" xml:space="preserve" width="210mm" height="210mm" version="1.1" style="shape-rendering:geometricPrecision; text-rendering:geometricPrecision; image-rendering:optimizeQuality; fill-rule:evenodd; clip-rule:evenodd"
viewBox="0 0 21000 21000"
 xmlns:xlink="http://www.w3.org/1999/xlink">
 <defs>
  <style type="text/css">
   <![CDATA[
    .str0 {stroke:#2B2A29;stroke-width:20}
    .fil0 {fill:#2B2A29}
   ]]>
  </style>
 </defs>
 <g id="Слой_x0020_1">
  <metadata id="CorelCorpID_0Corel-Layer"/>
  <path class="fil0 str0" d="M5650 0l9700 0c3112,0 5650,2538 5650,5650l0 9700c0,3112 -2538,5650 -5650,5650l-9700 0c-3112,0 -5650,-2538 -5650,-5650l0 -9700c0,-3112 2538,-5650 5650,-5650zm10719 2763c456,0 869,184 1167,483 299,299 483,711 483,1167 0,455 -184,868 -483,1166 -298,299 -711,484 -1167,484 -455,0 -868,-185 -1166,-484 -299,-298 -484,-711 -484,-1166 0,-456 185,-868 484,-1167 298,-299 711,-483 1166,-483zm460 1190c-117,-117 -280,-190 -460,-190 -179,0 -342,73 -459,190 -118,118 -191,280 -191,460 0,179 73,342 191,459 117,118 280,191 459,191 180,0 343,-73 460,-191 118,-117 190,-280 190,-459 0,-180 -72,-342 -190,-460zm-6339 968c1544,0 2941,625 3952,1637 1011,1011 1636,2408 1636,3951 0,1543 -625,2940 -1636,3951 -1011,1012 -2408,1637 -3952,1637 -1543,0 -2940,-625 -3951,-1637 -1011,-1011 -1637,-2408 -1637,-3951 0,-1543 626,-2940 1637,-3951 1011,-1012 2408,-1637 3951,-1637zm3282 2307c-840,-840 -2000,-1359 -3282,-1359 -1281,0 -2441,519 -3281,1359 -840,839 -1359,2000 -1359,3281 0,1281 519,2442 1359,3281 840,840 2000,1359 3281,1359 1282,0 2442,-519 3282,-1359 840,-839 1359,-2000 1359,-3281 0,-1281 -519,-2442 -1359,-3281z"/>
 </g>
</svg>
