<?xml version="1.0" encoding="UTF-8"?>
<!DOCTYPE svg PUBLIC "-//W3C//DTD SVG 1.1//EN" "http://www.w3.org/Graphics/SVG/1.1/DTD/svg11.dtd">
<!-- Creator: CorelDRAW X8 -->
<svg xmlns="http://www.w3.org/2000/svg" xml:space="preserve" width="500px" height="500px" version="1.1" style="shape-rendering:geometricPrecision; text-rendering:geometricPrecision; image-rendering:optimizeQuality; fill-rule:evenodd; clip-rule:evenodd"
viewBox="0 0 500 500"
 xmlns:xlink="http://www.w3.org/1999/xlink">
 <defs>
  <style type="text/css">
   <![CDATA[
    .fil0 {fill:#2B2A29}
   ]]>
  </style>
 </defs>
 <g id="Слой_x0020_1">
  <metadata id="CorelCorpID_0Corel-Layer"/>
  <path class="fil0" d="M500 350l0 0 0 150 -153 0 0 0 -194 0 0 0 -153 0 0 -150 0 0 0 -200 0 0 0 -150 153 0 0 0 194 0 0 0 153 0 0 150 0 0 0 200zm-110 -284c11,0 20,4 28,11 7,7 11,17 11,28 0,11 -4,21 -11,28 -8,7 -17,11 -28,11 -11,0 -21,-4 -28,-11 -7,-7 -12,-17 -12,-28 0,-11 5,-21 12,-28 7,-7 17,-11 28,-11zm11 28c-3,-3 -7,-4 -11,-4 -5,0 -8,1 -11,4 -3,3 -5,7 -5,11 0,4 2,8 5,11 3,3 6,5 11,5 4,0 8,-2 11,-5 3,-3 4,-7 4,-11 0,-4 -1,-8 -4,-11zm-151 23c37,0 70,15 94,39 24,24 39,57 39,94 0,37 -15,70 -39,94 -24,24 -57,39 -94,39 -37,0 -70,-15 -94,-39 -24,-24 -39,-57 -39,-94 0,-37 15,-70 39,-94 24,-24 57,-39 94,-39zm78 55c-20,-20 -48,-32 -78,-32 -31,0 -58,12 -78,32 -20,20 -33,48 -33,78 0,31 13,58 33,78 20,20 47,33 78,33 30,0 58,-13 78,-33 20,-20 32,-47 32,-78 0,-30 -12,-58 -32,-78z"/>
 </g>
</svg>
