<?xml version="1.0" encoding="UTF-8"?>
<!DOCTYPE svg PUBLIC "-//W3C//DTD SVG 1.1//EN" "http://www.w3.org/Graphics/SVG/1.1/DTD/svg11.dtd">
<!-- Creator: CorelDRAW X8 -->
<svg xmlns="http://www.w3.org/2000/svg" xml:space="preserve" width="200mm" height="80mm" version="1.1" style="shape-rendering:geometricPrecision; text-rendering:geometricPrecision; image-rendering:optimizeQuality; fill-rule:evenodd; clip-rule:evenodd"
viewBox="0 0 20000 8000"
 xmlns:xlink="http://www.w3.org/1999/xlink">
 <defs>
  <style type="text/css">
   <![CDATA[
    .fil1 {fill:#00AFA0}
    .fil0 {fill:#00D1CB}
    .fil2 {fill:#2B2A29;fill-rule:nonzero}
   ]]>
  </style>
 </defs>
 <g id="Слой_x0020_1">
  <metadata id="CorelCorpID_0Corel-Layer"/>
  <g id="_808699792">
   <g>
    <polygon class="fil0" points="2679,1932 2679,6685 1500,6256 1500,1505 1503,1504 "/>
    <polygon class="fil0" points="4143,2465 4143,7218 2964,6789 2964,2037 2966,2036 "/>
    <polygon class="fil0" points="5605,2997 5605,7750 4426,7321 4426,2569 4428,2568 "/>
   </g>
   <g>
    <polygon class="fil1" points="1507,1502 4948,250 6130,680 2676,1937 1500,1509 1500,1505 1507,1502 "/>
    <polygon class="fil1" points="2964,2037 6410,782 7592,1213 4138,2470 2964,2042 "/>
    <polygon class="fil1" points="4426,2569 7873,1315 9055,1745 5601,3002 4426,2574 "/>
   </g>
  </g>
  <path class="fil2" d="M7546 3995l-179 0 -24 -161c-24,-23 -54,-42 -90,-56 -36,-14 -79,-20 -128,-20 -105,0 -185,38 -242,114 -56,76 -84,175 -84,297l0 42c0,123 28,222 84,299 56,76 135,114 238,114 47,0 91,-6 130,-20 39,-14 70,-33 92,-56l24 -161 179 0 0 238c-48,56 -110,101 -185,135 -75,33 -159,49 -253,50 -161,-1 -293,-56 -396,-168 -103,-112 -155,-255 -155,-431l0 -40c0,-175 52,-318 154,-431 103,-112 235,-168 397,-168 94,0 178,17 253,51 75,33 136,78 185,134l0 238zm1171 -406l0 321 -185 0 -10 -135 -222 0 0 848 129 25 0 144 -499 0 0 -144 129 -25 0 -848 -221 0 -9 135 -185 0 0 -321 1073 0zm855 674l-407 0 0 344 388 0 11 -144 183 0 0 329 -952 0 0 -144 128 -25 0 -864 -128 -24 0 -146 128 0 823 0 0 330 -186 0 -10 -144 -385 0 0 303 407 0 0 185zm304 385l128 -25 0 -864 -128 -24 0 -146 492 0 0 146 -122 24 0 322 108 0 225 -325c48,-67 91,-114 128,-140 36,-26 86,-39 147,-39 28,0 54,4 78,12 24,8 47,18 67,31l-40 181c-18,-4 -30,-7 -36,-8 -7,-2 -15,-2 -26,-2 -26,0 -49,7 -71,21 -21,14 -47,41 -77,80l-189 258 334 477 126 21 0 144 -477 0 0 -144 69 -10 -225 -338 -141 0 0 323 122 25 0 144 -492 0 0 -144zm2310 -448c0,176 -50,322 -151,437 -101,115 -233,172 -396,173 -163,-1 -294,-58 -394,-173 -100,-115 -150,-261 -150,-437l0 -18c0,-176 50,-321 150,-437 99,-115 230,-173 393,-173 163,0 295,58 396,173 101,116 152,261 152,437l0 18zm-241 -20c0,-124 -26,-226 -77,-303 -52,-78 -129,-117 -230,-117 -101,0 -177,39 -227,116 -50,77 -75,178 -75,304l0 20c0,127 26,228 76,306 50,77 126,116 227,116 102,0 178,-39 230,-116 51,-78 76,-179 76,-306l0 -20zm800 -405l-4 362c-3,234 -37,401 -102,503 -65,102 -166,152 -303,152l-60 0 0 -185 32 0c75,-6 125,-41 151,-106 25,-65 39,-186 41,-364l4 -378 -126 -24 0 -146 946 0 129 0 0 146 -129 24 0 864 129 25 0 144 -499 0 0 -144 129 -25 0 -848 -338 0zm1178 -186l0 445 207 0c139,0 249,34 330,102 81,68 122,159 122,273 0,115 -41,208 -123,278 -81,70 -191,105 -329,105l-577 0 0 -144 129 -25 0 -864 -129 -24 0 -146 129 0 241 0zm0 632l0 386 207 0c67,0 120,-19 156,-56 37,-38 55,-86 55,-144 0,-55 -18,-100 -54,-135 -37,-34 -89,-51 -157,-51l-207 0zm129 -632l0 146 -129 24 0 -170 129 0zm615 146l0 -146 499 0 0 146 -129 24 0 347 491 0 0 -347 -129 -24 0 -146 129 0 240 0 129 0 0 146 -129 24 0 864 129 25 0 144 -498 0 0 -144 129 -25 0 -331 -491 0 0 331 129 25 0 144 -499 0 0 -144 128 -25 0 -864 -128 -24zm1311 913l86 -13 366 -1046 247 0 364 1046 86 13 0 144 -410 0 0 -144 83 -15 -53 -165 -390 0 -53 165 84 15 0 144 -410 0 0 -144zm436 -358l276 0 -135 -424 -5 0 -136 424zm1848 -701l0 146 -128 24 0 864 128 25 0 144 -369 0 0 -452 -159 0 -112 261c-30,64 -67,113 -110,147 -44,34 -96,52 -155,52 -28,0 -54,-4 -78,-11 -24,-7 -45,-17 -65,-30l32 -182c11,4 20,7 28,8 8,2 18,2 29,2 24,0 45,-6 65,-20 19,-13 40,-39 61,-75l94 -200c-83,-31 -145,-74 -186,-128 -42,-54 -62,-122 -62,-206 0,-118 39,-209 117,-273 78,-64 186,-96 325,-96l417 0 128 0zm-747 379c0,62 17,110 51,144 35,35 85,52 151,52l176 0 0 -389 -176 0c-67,0 -117,17 -151,50 -34,33 -51,81 -51,143zm249 824l0 -144 129 -25 0 169 -129 0zm-11209 1893l113 -22 0 -760 -113 -22 0 -128 433 0 0 128 -108 22 0 283 95 0 199 -286c42,-59 80,-100 112,-123 33,-23 76,-34 130,-34 25,0 47,3 69,10 21,7 41,16 59,27l-36 159c-15,-3 -26,-6 -31,-7 -6,-1 -14,-2 -24,-2 -22,0 -43,7 -61,19 -19,13 -42,36 -69,71l-166 227 294 420 111 18 0 127 -420 0 0 -127 61 -9 -198 -298 -125 0 0 285 108 22 0 127 -433 0 0 -127zm2033 -395c0,156 -44,284 -133,385 -89,102 -205,152 -348,152 -143,0 -259,-50 -347,-152 -88,-101 -132,-229 -132,-385l0 -16c0,-154 44,-282 132,-384 87,-101 203,-152 346,-152 143,0 260,51 349,152 89,102 133,230 133,384l0 16zm-211 -17c0,-110 -23,-199 -69,-267 -45,-68 -113,-103 -202,-103 -89,0 -156,35 -200,102 -44,68 -65,157 -65,268l0 17c0,112 22,202 66,270 45,68 111,102 200,102 89,0 157,-34 202,-102 45,-68 68,-158 68,-270l0 -17zm1318 -244l-4 -1 -284 784 -142 0 -283 -781 -4 0 21 465 0 167 113 22 0 127 -439 0 0 -127 113 -22 0 -760 -113 -22 0 -128 113 0 277 0 270 780 5 0 272 -780 391 0 0 128 -113 22 0 760 113 22 0 127 -439 0 0 -127 113 -22 0 -167 20 -467zm388 656l113 -22 0 -760 -113 -22 0 -128 1083 0 0 128 -113 22 0 760 113 22 0 127 -438 0 0 -127 112 -22 0 -746 -432 0 0 746 114 22 0 127 -439 0 0 -127zm1148 0l76 -11 322 -921 217 0 320 921 76 11 0 127 -361 0 0 -127 74 -13 -47 -146 -343 0 -47 146 74 13 0 127 -361 0 0 -127zm384 -315l243 0 -119 -373 -5 0 -119 373zm697 -489l0 -128 439 0 0 128 -114 22 0 305 432 0 0 -305 -113 -22 0 -128 113 0 212 0 113 0 0 128 -113 22 0 760 113 22 0 127 -438 0 0 -127 113 -22 0 -291 -432 0 0 291 114 22 0 127 -439 0 0 -127 113 -22 0 -760 -113 -22zm1613 -128l0 128 -114 22 0 490 4 1 428 -432 0 -59 -113 -22 0 -128 113 0 213 0 113 0 0 128 -113 22 0 760 113 22 0 127 -439 0 0 -127 113 -22 0 -479 -5 -1 -427 433 0 47 114 22 0 127 -439 0 0 -127 113 -22 0 -760 -113 -22 0 -128 113 0 212 0 114 0zm1649 0l0 128 -113 22 0 760 113 22 0 127 -325 0 0 -398 -140 0 -99 230c-26,56 -59,99 -97,129 -39,30 -84,45 -136,45 -24,0 -48,-3 -69,-9 -21,-6 -40,-15 -57,-26l28 -160c10,3 18,6 25,7 7,1 16,2 25,2 21,0 40,-6 57,-18 17,-12 36,-34 54,-67l83 -175c-73,-28 -128,-65 -164,-113 -36,-47 -55,-108 -55,-181 0,-104 35,-184 104,-241 69,-56 164,-84 286,-84l367 0 113 0zm-658 334c0,54 15,96 45,127 30,30 74,45 133,45l155 0 0 -342 -155 0c-59,0 -103,14 -133,44 -30,29 -45,71 -45,126zm219 725l0 -127 114 -22 0 149 -114 0zm2420 -290l-423 0 0 -108 423 0 0 108zm-461 -537c0,-72 23,-130 69,-176 45,-45 106,-68 183,-68 77,0 138,23 184,68 45,46 68,104 68,176l0 85c0,72 -23,131 -68,176 -46,45 -106,67 -183,67 -77,0 -138,-22 -184,-67 -46,-45 -69,-104 -69,-176l0 -85zm127 85c0,41 11,74 32,99 22,25 53,38 94,38 40,0 71,-13 92,-38 21,-25 32,-58 32,-99l0 -85c0,-40 -11,-73 -32,-98 -22,-25 -53,-38 -93,-38 -41,0 -72,13 -93,38 -21,25 -32,58 -32,98l0 85zm-162 -317l0 128 -113 22 0 909 -212 0 -428 -713 -4 1 0 563 113 22 0 127 -438 0 0 -127 112 -22 0 -760 -112 -22 0 -128 112 0 213 0 428 713 4 -1 0 -562 -113 -22 0 -128 325 0 113 0zm631 932l179 -22 0 -717 -181 0 0 -122 393 -71 0 910 179 22 0 127 -570 0 0 -127z"/>
 </g>
</svg>
