<?xml version="1.0" encoding="UTF-8"?>
<!DOCTYPE svg PUBLIC "-//W3C//DTD SVG 1.1//EN" "http://www.w3.org/Graphics/SVG/1.1/DTD/svg11.dtd">
<!-- Creator: CorelDRAW X8 -->
<svg xmlns="http://www.w3.org/2000/svg" xml:space="preserve" width="210mm" height="210mm" version="1.1" style="shape-rendering:geometricPrecision; text-rendering:geometricPrecision; image-rendering:optimizeQuality; fill-rule:evenodd; clip-rule:evenodd"
viewBox="0 0 21000 21000"
 xmlns:xlink="http://www.w3.org/1999/xlink">
 <defs>
  <style type="text/css">
   <![CDATA[
    .str0 {stroke:#2B2A29;stroke-width:20}
    .fil0 {fill:#2B2A29}
   ]]>
  </style>
 </defs>
 <g id="Слой_x0020_1">
  <metadata id="CorelCorpID_0Corel-Layer"/>
  <path class="fil0 str0" d="M5650 0l9700 0c3112,0 5650,2538 5650,5650l0 9700c0,3112 -2538,5650 -5650,5650l-9700 0c-3112,0 -5650,-2538 -5650,-5650l0 -9700c0,-3112 2538,-5650 5650,-5650zm8855 11409c376,366 772,711 1108,1114 149,180 290,365 398,573 152,295 14,621 -251,638l-1649 0c-425,35 -764,-136 -1049,-427 -229,-232 -440,-480 -659,-720 -90,-98 -185,-191 -297,-264 -225,-146 -421,-101 -549,134 -131,238 -161,503 -174,769 -17,388 -135,490 -525,508 -833,39 -1624,-87 -2359,-507 -647,-371 -1150,-894 -1587,-1487 -851,-1153 -1503,-2420 -2089,-3723 -132,-294 -35,-451 289,-457 537,-10 1075,-10 1614,-1 218,4 363,129 447,335 291,716 647,1397 1094,2028 119,168 241,336 413,454 192,131 337,87 427,-126 57,-135 82,-280 95,-425 43,-497 48,-994 -27,-1490 -45,-309 -220,-510 -528,-568 -158,-30 -135,-89 -58,-179 132,-155 257,-251 505,-251l1863 0c294,58 359,189 399,484l2 2070c-4,114 57,453 262,529 165,54 274,-78 373,-182 446,-474 764,-1033 1048,-1613 127,-255 235,-519 340,-784 78,-196 201,-292 422,-288l1793 2c53,0 107,0 158,9 302,52 385,182 292,477 -147,463 -433,849 -713,1236 -299,414 -619,813 -915,1230 -273,380 -251,571 87,902l0 0z"/>
  <g id="_810607952">
  </g>
  <g id="_810605520">
  </g>
  <g id="_810604208">
  </g>
  <g id="_810611632">
  </g>
  <g id="_810608592">
  </g>
  <g id="_810595824">
  </g>
  <g id="_810609904">
  </g>
  <g id="_810595248">
  </g>
  <g id="_810607696">
  </g>
  <g id="_810604304">
  </g>
  <g id="_810602576">
  </g>
  <g id="_810602736">
  </g>
  <g id="_810604752">
  </g>
  <g id="_810604240">
  </g>
  <g id="_810593360">
  </g>
 </g>
</svg>
