<?xml version="1.0" encoding="UTF-8"?>
<!DOCTYPE svg PUBLIC "-//W3C//DTD SVG 1.1//EN" "http://www.w3.org/Graphics/SVG/1.1/DTD/svg11.dtd">
<!-- Creator: CorelDRAW X8 -->
<svg xmlns="http://www.w3.org/2000/svg" xml:space="preserve" width="500px" height="500px" version="1.1" style="shape-rendering:geometricPrecision; text-rendering:geometricPrecision; image-rendering:optimizeQuality; fill-rule:evenodd; clip-rule:evenodd"
viewBox="0 0 500 500"
 xmlns:xlink="http://www.w3.org/1999/xlink">
 <defs>
  <style type="text/css">
   <![CDATA[
    .fil0 {fill:#2B2A29}
   ]]>
  </style>
 </defs>
 <g id="Слой_x0020_1">
  <metadata id="CorelCorpID_0Corel-Layer"/>
  <path class="fil0" d="M500 333l0 32 0 135 -500 0 0 -135 0 0 0 -230 0 0 0 -135 500 0 0 135 0 32 0 166zm-155 -61c9,8 19,17 27,26 3,4 7,9 9,14 4,7 1,15 -6,15l-39 0c-10,1 -18,-3 -25,-10 -5,-6 -10,-12 -16,-17 -2,-3 -4,-5 -7,-7 -5,-3 -10,-2 -13,4 -3,5 -4,12 -4,18 0,9 -3,12 -12,12 -20,1 -39,-2 -57,-12 -15,-9 -27,-21 -37,-35 -21,-28 -36,-58 -50,-89 -3,-7 -1,-11 7,-11 13,0 25,0 38,0 5,0 9,3 11,8 7,17 15,33 26,48 3,4 6,8 10,11 4,3 8,2 10,-3 1,-3 2,-7 2,-10 1,-12 1,-24 -1,-36 -1,-7 -5,-12 -12,-13 -4,-1 -3,-2 -1,-4 3,-4 6,-6 12,-6l44 0c7,1 8,4 9,11l0 50c0,2 2,10 7,12 4,1 6,-2 9,-4 10,-12 18,-25 25,-39 3,-6 5,-12 8,-18 1,-5 4,-7 10,-7l42 0c2,0 3,0 4,0 7,1 9,4 7,11 -3,11 -10,21 -17,30 -7,10 -15,19 -22,29 -6,9 -6,14 2,22l0 0z"/>
 </g>
 <g id="Слой_x0020_1_0">
  <metadata id="CorelCorpID_1Corel-Layer"/>
  <g id="_810607952">
  </g>
  <g id="_810605520">
  </g>
  <g id="_810604208">
  </g>
  <g id="_810611632">
  </g>
  <g id="_810608592">
  </g>
  <g id="_810595824">
  </g>
  <g id="_810609904">
  </g>
  <g id="_810595248">
  </g>
  <g id="_810607696">
  </g>
  <g id="_810604304">
  </g>
  <g id="_810602576">
  </g>
  <g id="_810602736">
  </g>
  <g id="_810604752">
  </g>
  <g id="_810604240">
  </g>
  <g id="_810593360">
  </g>
 </g>
</svg>
